<?xml version="1.0" encoding="utf-8"?>
<!-- Generator: Adobe Illustrator 16.0.0, SVG Export Plug-In . SVG Version: 6.00 Build 0)  -->
<!DOCTYPE svg PUBLIC "-//W3C//DTD SVG 1.1//EN" "http://www.w3.org/Graphics/SVG/1.1/DTD/svg11.dtd">
<svg version="1.1" id="Layer_1" xmlns="http://www.w3.org/2000/svg" xmlns:xlink="http://www.w3.org/1999/xlink" x="0px" y="0px"
	 width="140px" height="48.484px" viewBox="0 0 140 48.484" enable-background="new 0 0 140 48.484" xml:space="preserve">
<g>
	<path fill="#0751A0" d="M32.192,9.672c-2.646-1.384-6.147-2.642-9.685-2.642c-5.001,0-7.743,2.183-7.743,4.862
		c0,3.043,4.194,5.33,11.21,9.606c8.018,4.947,12.261,8.808,12.261,14.467c0,5.781-7.164,12.502-20.638,12.502
		c-6.245,0-13.163-1.452-17.598-4.587l4.371-5.292c3.139,1.783,6.802,3.691,12.187,3.691c4.953,0,9.312-2.042,9.312-6.382
		c0-5.051-8.023-8.408-12.799-11.307C7.268,20.979,2.392,18.167,2.392,12.033c0-6.191,8.112-11.192,18.958-11.192
		c6.813,0,12.285,1.907,15.104,4.03L32.192,9.672z"/>
	<polygon fill="#EC2427" points="102.567,12.836 96.601,6.413 102.567,0 108.512,6.413 	"/>
	<path fill="#0751A0" d="M139.235,40.579c-0.986-1.623-1.333-3.925-1.333-5.773V23.676c0.028-3.957-2.036-6.473-4.656-7.77
		c-2.622-1.316-5.757-1.598-8.278-1.608c-4.687-0.011-8.294,1.06-11.688,3.595l-0.743,0.541l3.38,3.346l0.535-0.333
		c2.339-1.494,4.54-2.598,8.197-2.609c1.438-0.007,2.864,0.463,3.923,1.227c0.871,0.645,1.497,1.464,1.74,2.453l-7.229,1.764
		c-3.477,0.8-6.475,1.909-8.694,3.443c-2.185,1.505-3.613,3.562-3.607,6.074c-0.006,2.602,1.065,4.791,2.885,6.285
		c1.814,1.493,4.327,2.282,7.221,2.282c3.321-0.004,6.319-1.664,8.7-3.494l0.895-0.667c0.089,1.159,0.328,2.301,1.023,3.246
		l0.226,0.318h8.234L139.235,40.579z M130.502,27.678c0,6.485-4.621,9.591-8.098,9.599c-0.987,0-2.01-0.359-2.744-0.989
		c-0.748-0.623-1.208-1.464-1.208-2.558c0.015-1.349,0.522-2.334,1.707-3.269c1.178-0.923,3.046-1.697,5.575-2.278l4.753-1.071
		L130.502,27.678"/>
	<rect x="99.093" y="15.168" fill="#0751A0" width="6.945" height="26.337"/>
	<path fill="#0751A0" d="M93.871,36.769l-0.421,0.182c-1.091,0.452-2.229,0.819-4.326,0.83c-1.714-0.011-2.618-0.471-3.194-1.282
		c-0.563-0.815-0.812-2.127-0.812-3.865V18.812h8.61v-3.643h-8.61V7.404l-6.965,1.809v5.956h-4.602v3.643h4.602v14.685
		c0,2.68,0.841,4.896,2.577,6.378c1.745,1.49,4.313,2.231,7.673,2.231c2.323,0,4.803-0.615,6.936-1.657l0.496-0.252L93.871,36.769z"
		/>
	<path fill="#0751A0" d="M68.557,35.498c-2.114,1.23-5.722,2.095-8.608,2.087c-5.783,0-9.896-3.906-10.282-8.16h22.029l0.078-0.708
		c0.048-0.549,0.083-1.097,0.083-1.66c0-3.198-0.934-6.381-3.155-8.804c-2.176-2.405-5.641-3.965-10.4-3.954
		c-3.867,0.007-7.873,1.03-11.016,3.228c-3.138,2.216-5.344,5.673-5.327,10.297c-0.017,4.651,1.799,8.376,4.958,10.848
		c3.163,2.457,7.581,3.698,12.834,3.698c3.568-0.008,7.751-1.082,11.286-3.017l0.767-0.415l-2.631-3.802L68.557,35.498z
		 M50.12,24.829c0.543-2.735,2.738-5.728,8.127-5.754c2.427,0,4.012,0.771,5.043,1.916c0.875,0.989,1.368,2.319,1.498,3.838H50.12z"
		/>
</g>
</svg>
